<?xml version="1.0" encoding="UTF-8" standalone="no"?>
<!-- Created with Inkscape (http://www.inkscape.org/) -->

<svg
   width="317.70081"
   height="82"
   viewBox="0 0 84.058865 21.695927"
   version="1.1"
   id="svg5"
   inkscape:version="1.1.1 (3bf5ae0d25, 2021-09-20)"
   sodipodi:docname="INCLAM.svg"
   xmlns:inkscape="http://www.inkscape.org/namespaces/inkscape"
   xmlns:sodipodi="http://sodipodi.sourceforge.net/DTD/sodipodi-0.dtd"
   xmlns="http://www.w3.org/2000/svg"
   xmlns:svg="http://www.w3.org/2000/svg">
  <sodipodi:namedview
     id="namedview7"
     pagecolor="#ffffff"
     bordercolor="#cccccc"
     borderopacity="1"
     inkscape:pageshadow="0"
     inkscape:pageopacity="1"
     inkscape:pagecheckerboard="0"
     inkscape:document-units="mm"
     showgrid="false"
     units="px"
     width="335.70081px"
     height="857.51965px"
     inkscape:zoom="2.6687159"
     inkscape:cx="154.19401"
     inkscape:cy="-24.543639"
     inkscape:window-width="1824"
     inkscape:window-height="1003"
     inkscape:window-x="-8"
     inkscape:window-y="-8"
     inkscape:window-maximized="1"
     inkscape:current-layer="layer1" />
  <defs
     id="defs2">
    <clipPath
       clipPathUnits="userSpaceOnUse"
       id="clipPath23">
      <path
         d="m 1446,1387 h 2031 v 685 H 1446 v -685"
         id="path21" />
    </clipPath>
  </defs>
  <g
     inkscape:label="Layer 1"
     inkscape:groupmode="layer"
     id="layer1">
    <g
       id="g19"
       clip-path="url(#clipPath23)"
       transform="matrix(0.04233333,0,0,-0.04233333,-61.978842,84.948853)">
      <path
         d="M 1469,1883 H 3436"
         style="fill:none;stroke:#000000;stroke-width:1;stroke-linecap:round;stroke-linejoin:round;stroke-miterlimit:10;stroke-dasharray:none;stroke-opacity:1"
         id="path25" />
      <path
         d="M 1469,1808 H 3436"
         style="fill:none;stroke:#000000;stroke-width:1;stroke-linecap:round;stroke-linejoin:round;stroke-miterlimit:10;stroke-dasharray:none;stroke-opacity:1"
         id="path27" />
      <path
         d="M 1469,1734 H 3436"
         style="fill:none;stroke:#000000;stroke-width:1;stroke-linecap:round;stroke-linejoin:round;stroke-miterlimit:10;stroke-dasharray:none;stroke-opacity:1"
         id="path29" />
      <path
         d="M 1469,1660 H 3436"
         style="fill:none;stroke:#000000;stroke-width:1;stroke-linecap:round;stroke-linejoin:round;stroke-miterlimit:10;stroke-dasharray:none;stroke-opacity:1"
         id="path31" />
      <path
         d="M 1469,1585 H 3436"
         style="fill:none;stroke:#000000;stroke-width:1;stroke-linecap:round;stroke-linejoin:round;stroke-miterlimit:10;stroke-dasharray:none;stroke-opacity:1"
         id="path33" />
      <path
         d="m 1599,1611 -3,-5 -4,-5 -4,-4 -6,-4 -6,-3 -7,-3 -6,-1 -7,-1 -6,1 -6,1 -5,3 -4,3 -3,4 -2,4 v 5 l 1,5 2,5 3,5 4,5 6,4 5,3 7,3 6,2 7,1 h 7 l 6,-1 5,-2 v 152 h 10 v -177"
         style="fill:none;stroke:#000000;stroke-width:4;stroke-linecap:round;stroke-linejoin:round;stroke-miterlimit:10;stroke-dasharray:none;stroke-opacity:1"
         id="path35" />
      <path
         d="m 1566,1820 2,-3 3,-2 3,-1 4,-1 h 4 l 5,1 4,1 4,3 4,2 4,3 3,4 2,3 1,4 1,4 v 4 l -1,3 -2,3 -2,2 -3,2 -4,1 h -4 l -4,-1 -5,-1 -4,-2 -4,-2 -4,-3 -3,-3 -3,-4 -2,-4 -1,-3 v -4 l 1,-3 1,-3"
         style="fill:none;stroke:#000000;stroke-width:4;stroke-linecap:round;stroke-linejoin:round;stroke-miterlimit:10;stroke-dasharray:none;stroke-opacity:1"
         id="path37" />
      <path
         d="m 1872,1660 -1,-6 -2,-6 -3,-5 -3,-6 -5,-5 -5,-5 -6,-3 -6,-3 -6,-2 -6,-1 h -5 l -5,2 -4,2 -3,4 -3,4 -1,5 v 6 l 2,5 2,6 3,6 4,5 5,5 6,5 6,3 6,2 6,1 h 5 l -55,142 9,4 64,-165"
         style="fill:none;stroke:#000000;stroke-width:4;stroke-linecap:round;stroke-linejoin:round;stroke-miterlimit:10;stroke-dasharray:none;stroke-opacity:1"
         id="path39" />
      <path
         d="m 1989,1706 -1,-6 -1,-6 -3,-6 -4,-5 -4,-5 -6,-5 -5,-4 -6,-3 -6,-1 -6,-1 h -6 l -5,2 -4,2 -3,4 -2,4 -1,5 v 5 l 1,6 2,6 4,6 4,5 5,5 5,4 6,3 6,3 6,1 h 6 l -55,142 9,4 64,-165"
         style="fill:none;stroke:#000000;stroke-width:4;stroke-linecap:round;stroke-linejoin:round;stroke-miterlimit:10;stroke-dasharray:none;stroke-opacity:1"
         id="path41" />
      <path
         d="m 1798,1821 -1,-16 -8,-27 v -19 l 4,-15 4,-10 12,-17 11,-10 5,3 -10,10 -8,12 -6,20 1,16 12,14 -16,39"
         style="fill:none;stroke:#000000;stroke-width:4;stroke-linecap:round;stroke-linejoin:round;stroke-miterlimit:10;stroke-dasharray:none;stroke-opacity:1"
         id="path43" />
      <g
         id="g45"
         transform="rotate(90,53,1834.5)">
        <path
           d="M 71.9127,-33.89414 C 81.29508,-13.98769 82.00626,8.91733 73.87692,29.3675 65.74759,49.81767 49.50508,65.98327 29.01657,74.01546"
           style="fill:none;stroke:#000000;stroke-width:4;stroke-linecap:round;stroke-linejoin:round;stroke-miterlimit:10;stroke-dasharray:none;stroke-opacity:1"
           id="path47" />
      </g>
      <g
         id="g49"
         transform="rotate(90,62.5,1837)">
        <path
           d="M 72.6504,-23.96183 C 79.82642,-2.20469 76.8736,21.62332 64.60381,40.97068 52.33403,60.31805 32.03902,73.14793 9.2989,75.93274"
           style="fill:none;stroke:#000000;stroke-width:4;stroke-linecap:round;stroke-linejoin:round;stroke-miterlimit:10;stroke-dasharray:none;stroke-opacity:1"
           id="path51" />
      </g>
      <path
         d="m 2210,1809 -11,2 -13,-2 -12,-5 -12,-8 -11,-12 -10,-14 -9,-16 -7,-18 -5,-19 -2,-19 -1,-19 2,-19 4,-16 6,-15 8,-13 10,-9 11,-6 12,-3"
         style="fill:none;stroke:#000000;stroke-width:4;stroke-linecap:round;stroke-linejoin:round;stroke-miterlimit:10;stroke-dasharray:none;stroke-opacity:1"
         id="path53" />
      <path
         d="m 2205,1800 -1,1 h -2 -1 -1 -1 -2 -1 -1 -2 -1 l -1,-1 h -2 -1 l -1,-1 h -2 l -1,-1 h -1 l -2,-1 -1,-1 h -2 l -1,-1 -1,-1 -2,-1 -1,-1 -2,-1 -1,-1 -2,-1 -1,-2 -1,-1 -2,-1 -1,-1 -1,-2 -2,-1 -1,-2 -1,-1 -2,-2 -1,-2 -1,-2 -2,-1 -1,-2 -1,-2 -1,-2 -1,-2 -2,-2 -1,-2 -1,-2 -1,-2 -1,-2 -1,-2 -1,-2 -1,-3 -1,-2 -1,-2 v -3 l -1,-2 -1,-2 -1,-3 -1,-2 v -2 l -1,-3 v -2 l -1,-3 -1,-2 v -3 l -1,-2 v -3 -2 l -1,-3 v -2 -3 l -1,-2 v -3 -2 -3 -2 -2 -3 -2 -3 -2 -2 l 1,-3 v -2 -2 -3 l 1,-2 v -2 l 1,-2 v -2 l 1,-3 v -2 l 1,-2 v -2 l 1,-2 1,-2 v -1 l 1,-2 1,-2 1,-2 v -2 l 1,-1 1,-2 1,-1 1,-2 1,-1 1,-2 1,-1 1,-1 1,-1 1,-2 1,-1 1,-1 1,-1 1,-1 1,-1 1,-1 h 2 l 1,-1 1,-1 h 1 l 1,-1 h 1 l 2,-1 h 1 l 1,-1 h 1 1 l 2,-1"
         style="fill:none;stroke:#000000;stroke-width:4;stroke-linecap:round;stroke-linejoin:round;stroke-miterlimit:10;stroke-dasharray:none;stroke-opacity:1"
         id="path55" />
      <path
         d="m 2202,1811 h 1 l -16,1 -27,7 -20,-2 -14,-4 -10,-5 -17,-12 -9,-12 3,-4 10,10 12,9 19,7 h 17 l 11,-10"
         style="fill:none;stroke:#000000;stroke-width:4;stroke-linecap:round;stroke-linejoin:round;stroke-miterlimit:10;stroke-dasharray:none;stroke-opacity:1"
         id="path57" />
      <path
         d="m 2168,1601 2,-3 2,-2 3,-2 4,-2 h 4 l 5,-1 4,1 5,1 4,2 4,3 4,3 3,3 2,3 1,4 1,3 -1,4 -1,3 -2,2 -3,3 -3,1 -4,1 -4,1 -5,-1 h -4 l -5,-2 -4,-2 -4,-3 -3,-3 -3,-3 -1,-4 -1,-3 -1,-4 1,-3"
         style="fill:none;stroke:#000000;stroke-width:4;stroke-linecap:round;stroke-linejoin:round;stroke-miterlimit:10;stroke-dasharray:none;stroke-opacity:1"
         id="path59" />
      <path
         d="m 2208,1807 3,2 3,2 h 4 3 l 5,-1 4,-1 4,-3 3,-3 4,-3 3,-4 2,-4 1,-4 1,-4 v -3 l -1,-4 -1,-3 -3,-2 -3,-2 -3,-1 h -4 -4 l -4,1 -4,2 -4,3 -3,3 -4,4 -2,3 -2,4 -1,4 v 4 4 l 1,3 2,3"
         style="fill:none;stroke:#000000;stroke-width:4;stroke-linecap:round;stroke-linejoin:round;stroke-miterlimit:10;stroke-dasharray:none;stroke-opacity:1"
         id="path61" />
      <path
         d="m 2420,1693 2,-5 4,-5 5,-5 5,-3 6,-4 7,-2 7,-1 6,-1 7,1 5,1 5,2 4,3 3,4 2,5 v 5 5 l -2,5 -4,5 -4,4 -5,4 -6,4 -6,3 -7,2 h -7 -6 l -6,-1 -5,-2 v 202 h -10 v -226"
         style="fill:none;stroke:#000000;stroke-width:4;stroke-linecap:round;stroke-linejoin:round;stroke-miterlimit:10;stroke-dasharray:none;stroke-opacity:1"
         id="path63" />
      <path
         d="m 2420,1919 -8,-14 -17,-23 -6,-18 -2,-15 v -11 l 5,-20 7,-13 h 5 l -6,14 -3,14 2,21 7,15 16,8 v 42"
         style="fill:none;stroke:#000000;stroke-width:4;stroke-linecap:round;stroke-linejoin:round;stroke-miterlimit:10;stroke-dasharray:none;stroke-opacity:1"
         id="path65" />
      <path
         d="m 2725,1758 15,-56"
         style="fill:none;stroke:#000000;stroke-width:4;stroke-linecap:round;stroke-linejoin:round;stroke-miterlimit:10;stroke-dasharray:none;stroke-opacity:1"
         id="path67" />
      <path
         d="m 2743,1690 9,-32"
         style="fill:none;stroke:#000000;stroke-width:4;stroke-linecap:round;stroke-linejoin:round;stroke-miterlimit:10;stroke-dasharray:none;stroke-opacity:1"
         id="path69" />
      <path
         d="m 2756,1643 1,-4"
         style="fill:none;stroke:#000000;stroke-width:4;stroke-linecap:round;stroke-linejoin:round;stroke-miterlimit:10;stroke-dasharray:none;stroke-opacity:1"
         id="path71" />
      <path
         d="m 2728,1784 32,-119 5,3 5,2 6,2 7,1 h 7 l 7,-1 7,-2 6,-2 5,-4 4,-4 4,-4 2,-5 1,-5 -1,-4 -2,-5 -3,-4 -4,-3 -5,-3 -6,-2 -7,-2 h -6 l -7,1 -7,1 -6,2 -6,3 -5,4 -4,4"
         style="fill:none;stroke:#000000;stroke-width:4;stroke-linecap:round;stroke-linejoin:round;stroke-miterlimit:10;stroke-dasharray:none;stroke-opacity:1"
         id="path73" />
      <g
         id="g75"
         transform="rotate(90,467,2207.5)">
        <path
           d="M 18.33098,-51.3247 C 42.24001,-42.78542 57.08589,-18.8683 54.12914,6.34715 51.17239,31.5626 31.1963,51.39652 5.96037,54.17309"
           style="fill:none;stroke:#000000;stroke-width:4;stroke-linecap:round;stroke-linejoin:round;stroke-miterlimit:10;stroke-dasharray:none;stroke-opacity:1"
           id="path77" />
      </g>
      <g
         id="g79"
         transform="rotate(90,468,2210.5)">
        <path
           d="M 41.7868,-49.13363 C 61.5087,-32.36069 69.29033,-5.42082 61.54956,19.28475 53.8088,43.99032 32.04591,61.67329 6.27903,64.19364"
           style="fill:none;stroke:#000000;stroke-width:4;stroke-linecap:round;stroke-linejoin:round;stroke-miterlimit:10;stroke-dasharray:none;stroke-opacity:1"
           id="path81" />
      </g>
      <path
         d="m 2614,1748 6,-2"
         style="fill:none;stroke:#000000;stroke-width:4;stroke-linecap:round;stroke-linejoin:round;stroke-miterlimit:10;stroke-dasharray:none;stroke-opacity:1"
         id="path83" />
      <path
         d="m 2740,1702 -10,3 h -11 l -11,-2 -12,-3 -12,-6 -11,-6 -9,-9 -9,-9 -7,-10 -5,-11 -3,-10 -1,-10 1,-10 4,-8 5,-7 7,-5 9,-4 11,-2 11,1 11,2 12,4 11,6 11,8 10,9 8,9 6,11"
         style="fill:none;stroke:#000000;stroke-width:4;stroke-linecap:round;stroke-linejoin:round;stroke-miterlimit:10;stroke-dasharray:none;stroke-opacity:1"
         id="path85" />
      <path
         d="m 2743,1690 h -1 l -1,1 -2,1 -1,1 h -2 l -1,1 h -2 l -2,1 h -1 -2 -2 -2 -2 -2 -2 -3 -2 l -2,-1 h -2 l -3,-1 -2,-1 h -2 l -3,-1 -2,-1 -2,-1 -2,-1 -3,-1 -2,-2 -2,-1 -2,-1 -3,-2 -2,-1 -2,-2 -2,-1 -2,-2 -2,-2 -2,-2 -1,-1 -2,-2 -2,-2 -1,-2 -2,-2 -1,-2 -2,-2 -1,-2 -1,-2 -1,-2 -1,-2 -1,-2 -1,-2 -1,-2 -1,-2 v -2 l -1,-2 v -2 -2 -2 l -1,-1 v -2 l 1,-2 v -1 -2 -1 l 1,-2 v -1 l 1,-2 v -1 l 1,-1 1,-1 v -1 l 1,-1 1,-1 1,-1 1,-1 1,-1 2,-1 1,-1 1,-1 h 2 l 1,-1 h 2 l 1,-1 h 2 2 l 2,-1 h 2 2 2 2 2 2 l 2,1 h 3 l 2,1 h 2 l 2,1 3,1 2,1 h 2 l 3,1 2,1 2,2 2,1 3,1 2,2 2,1 2,1 2,2 2,2 2,1 2,2 2,2 2,2 2,2 1,1 2,2 2,2 1,2 1,2 2,2 1,2 1,2 1,2 1,2 1,2 1,2 v 2 l 1,2"
         style="fill:none;stroke:#000000;stroke-width:4;stroke-linecap:round;stroke-linejoin:round;stroke-miterlimit:10;stroke-dasharray:none;stroke-opacity:1"
         id="path87" />
      <path
         d="m 2728,1784 11,-13 22,-16 17,-30 2,-11 2,-21 -4,-14 -5,-1 2,14 -1,15 -7,19 -10,13 -18,4 -11,41"
         style="fill:none;stroke:#000000;stroke-width:4;stroke-linecap:round;stroke-linejoin:round;stroke-miterlimit:10;stroke-dasharray:none;stroke-opacity:1"
         id="path89" />
      <path
         d="m 3017,1588 -4,-5 -5,-4 -5,-3 -6,-2 -7,-2 -7,-1 h -7 l -6,1 -6,2 -6,2 -4,4 -3,4 -2,4 -1,5 v 5 l 2,4 3,5 5,4 5,4 6,2 6,3 7,1 h 7 7 l 6,-2 6,-2 4,-3 55,246 9,-2 -59,-270"
         style="fill:none;stroke:#000000;stroke-width:4;stroke-linecap:round;stroke-linejoin:round;stroke-miterlimit:10;stroke-dasharray:none;stroke-opacity:1"
         id="path91" />
      <path
         d="m 3161,1658 -4,-5 -4,-4 -6,-3 -6,-2 -7,-2 -7,-1 h -6 l -7,1 -6,2 -5,2 -5,4 -3,4 -2,4 -1,5 1,4 2,5 3,5 4,4 5,4 6,2 7,3 7,1 h 6 7 l 6,-2 6,-2 5,-3 33,149 9,-2 -38,-173"
         style="fill:none;stroke:#000000;stroke-width:4;stroke-linecap:round;stroke-linejoin:round;stroke-miterlimit:10;stroke-dasharray:none;stroke-opacity:1"
         id="path93" />
      <path
         d="m 3067,1860 -11,-13 -21,-18 -10,-16 -5,-14 -3,-11 v -21 l 5,-14 5,-1 -3,14 v 15 l 6,20 10,13 18,5 9,41"
         style="fill:none;stroke:#000000;stroke-width:4;stroke-linecap:round;stroke-linejoin:round;stroke-miterlimit:10;stroke-dasharray:none;stroke-opacity:1"
         id="path95" />
      <g
         id="g97"
         transform="rotate(90,670.5,2448)">
        <path
           d="m 41.00185,-68.11093 c 18.85405,11.34989 32.16,30.00726 36.74983,51.53001 4.58983,21.52276 0.05289,43.98521 -12.53063,62.03931"
           style="fill:none;stroke:#000000;stroke-width:4;stroke-linecap:round;stroke-linejoin:round;stroke-miterlimit:10;stroke-dasharray:none;stroke-opacity:1"
           id="path99" />
      </g>
      <g
         id="g101"
         transform="rotate(90,680,2445.5)">
        <path
           d="m 47.12879,-60.25883 c 18.04614,14.11399 28.81676,35.57296 29.35045,58.47675 0.53369,22.90378 -9.22572,44.84113 -26.59487,59.78036"
           style="fill:none;stroke:#000000;stroke-width:4;stroke-linecap:round;stroke-linejoin:round;stroke-miterlimit:10;stroke-dasharray:none;stroke-opacity:1"
           id="path103" />
      </g>
      <path
         d="m 3284,1631 -4,-5 -4,-4 -6,-3 -6,-3 -7,-1 -7,-1 h -6 l -7,1 -6,2 -5,2 -5,4 -3,3 -2,5 -1,5 1,4 2,5 3,5 4,4 5,3 6,3 7,2 7,2 h 6 7 l 6,-2 6,-2 5,-3 33,149 9,-2 -38,-173"
         style="fill:none;stroke:#000000;stroke-width:4;stroke-linecap:round;stroke-linejoin:round;stroke-miterlimit:10;stroke-dasharray:none;stroke-opacity:1"
         id="path105" />
      <g
         id="g107"
         transform="rotate(90,745.5,2496)">
        <path
           d="m 41.00185,-68.11093 c 18.85405,11.34989 32.16,30.00726 36.74983,51.53001 4.58983,21.52276 0.05289,43.98521 -12.53063,62.03931"
           style="fill:none;stroke:#000000;stroke-width:4;stroke-linecap:round;stroke-linejoin:round;stroke-miterlimit:10;stroke-dasharray:none;stroke-opacity:1"
           id="path109" />
      </g>
      <g
         id="g111"
         transform="rotate(90,755.5,2493)">
        <path
           d="m 47.12879,-60.25883 c 18.04614,14.11399 28.81676,35.57296 29.35045,58.47675 0.53369,22.90378 -9.22572,44.84113 -26.59487,59.78036"
           style="fill:none;stroke:#000000;stroke-width:4;stroke-linecap:round;stroke-linejoin:round;stroke-miterlimit:10;stroke-dasharray:none;stroke-opacity:1"
           id="path113" />
      </g>
      <path
         d="m 2647,1966 v 2 1 l -1,1 v 1 1 1 1 1 1 1 1 h 1 v 1 1 1 l 1,1 v 1 h 1 v 1 h 1 v 1 h 1 v 1 h 1 1 v -1 h 1 v -1 h 1 v -1 -1 h 1 v -1 -1 l 1,-1 v -1 -1 -1 -1 -1 -1 -1 -1 -1 -1 h -1 v -1 -1 l -1,-1 v -1 h -1 v -1 l -1,-1 -1,-1 -1,-1 h -1 v -1"
         style="fill:none;stroke:#000000;stroke-width:1;stroke-linecap:round;stroke-linejoin:round;stroke-miterlimit:10;stroke-dasharray:none;stroke-opacity:1"
         id="path115" />
      <path
         d="m 2652,1954 h 1 1 1 1 l 1,-1 h 1 l 1,-1 h 1 v -1 h 1 v -1 h 1 v -1 -1 h 1 v -1 -1 -1 -1 -1 -1 h -1 v -1 -1 l -1,-1 -1,-1 v -1 h -1 -1 v -1 h -1 v -1 h -1"
         style="fill:none;stroke:#000000;stroke-width:1;stroke-linecap:round;stroke-linejoin:round;stroke-miterlimit:10;stroke-dasharray:none;stroke-opacity:1"
         id="path117" />
      <path
         d="m 2655,1935 h -1 -1 v -1 h -1 -1 -1 -1 -1 -1 v 1 h -1 -1 -1 v 1 h -1 -1 v 1 h -1 v 1 h -1 l -1,1 v 1 h -1 v 1 h -1 v 1 1 l -1,1 v 1 1 1 1 h -1 v 1 l 1,1 v 1 1 1 1 h 1 v 1 1 h 1 v 1 l 1,1 1,1 v 1 h 1 v 1 h 1 v 1 h 1 l 1,1 1,1 1,1 h 1"
         style="fill:none;stroke:#000000;stroke-width:1;stroke-linecap:round;stroke-linejoin:round;stroke-miterlimit:10;stroke-dasharray:none;stroke-opacity:1"
         id="path119" />
      <path
         d="m 2649,1967 h 1 v 1 h 1 v 1 h 1 v 1 h 1 v 1 h 1 v 1 1 h 1 v 1 1 1 h 1 v 1 1 l -1,1 v 1 h -1 -1 -1 -1 v -1 h -1 v -1 l -1,-1 v -1 -1 h -1 v -1 -1 -1 -1 -1 -1 -1 l 1,-1 v -1"
         style="fill:none;stroke:#000000;stroke-width:1;stroke-linecap:round;stroke-linejoin:round;stroke-miterlimit:10;stroke-dasharray:none;stroke-opacity:1"
         id="path121" />
      <path
         d="m 2647,1966 9,-39"
         style="fill:none;stroke:#000000;stroke-width:1;stroke-linecap:round;stroke-linejoin:round;stroke-miterlimit:10;stroke-dasharray:none;stroke-opacity:1"
         id="path123" />
      <path
         d="m 2649,1966 9,-37"
         style="fill:none;stroke:#000000;stroke-width:1;stroke-linecap:round;stroke-linejoin:round;stroke-miterlimit:10;stroke-dasharray:none;stroke-opacity:1"
         id="path125" />
      <path
         d="m 2649,1959 -1,-1 h -1 l -1,-1 -1,-1 -1,-1 h -1 v -1 l -1,-1 -1,-1 v -1 h -1 v -1 -1 h -1 v -1 -1 -1 -1 -1 -1 -1 h 1 v -1 l 1,-1 1,-1 h 1 v -1 h 1 v -1 h 1 1 1 v -1 h 1 1 1 1 1 1 1"
         style="fill:none;stroke:#000000;stroke-width:1;stroke-linecap:round;stroke-linejoin:round;stroke-miterlimit:10;stroke-dasharray:none;stroke-opacity:1"
         id="path127" />
      <path
         d="m 2656,1937 h 1 v 1 h 1 v 1 h 1 v 1 h 1 v 1 1 1 1 1 1 h -1 v 1 h -1 v 1 h -1 v 1 h -1 -1 l -1,1 h -1"
         style="fill:none;stroke:#000000;stroke-width:1;stroke-linecap:round;stroke-linejoin:round;stroke-miterlimit:10;stroke-dasharray:none;stroke-opacity:1"
         id="path129" />
      <path
         d="m 2651,1950 v -1 h -1 -1 v -1 h -1 v -1 h -1 v -1 -1 -1 -1 -1 h 1 v -1 h 1 v -1 h 1 1 v -1 h -1 -1 -1 v 1 h -1 l -1,1 v 1 h -1 v 1 h -1 v 1 1 1 1 1 1 h 1 v 1 l 1,1 h 1 v 1 h 1 v 1 h 1 1 v 1"
         style="fill:none;stroke:#000000;stroke-width:1;stroke-linecap:round;stroke-linejoin:round;stroke-miterlimit:10;stroke-dasharray:none;stroke-opacity:1"
         id="path131" />
      <path
         d="m 2656,1927 v -1 -1 -1 -1 h -1 v -1 h -1 l -1,-1 h -1 -1 -1 -1 -1 -1 v 1 h -1 v 1 -1 h 1 1 1 v 1 h 1 v 1 1 l 1,1 v 1 h -1 v 1 1 h -1 -1 v 1 h -1 -1 -1 -1 v -1 h -1 v -1 h -1 v -1 -1 -1 -1 -1 -1 h 1 v -1 h 1 v -1 h 1 1 v -1 h 1 1 1 1 1 1 1 v 1 h 1 1 v 1 h 1 v 1 h 1 v 1 1 l 1,1 v 1 1 1 1"
         style="fill:none;stroke:#000000;stroke-width:1;stroke-linecap:round;stroke-linejoin:round;stroke-miterlimit:10;stroke-dasharray:none;stroke-opacity:1"
         id="path133" />
      <path
         d="m 2657,1930 v 0"
         style="fill:none;stroke:#000000;stroke-width:1;stroke-linecap:round;stroke-linejoin:round;stroke-miterlimit:10;stroke-dasharray:none;stroke-opacity:1"
         id="path135" />
      <path
         d="m 2015,1606 1,1 v 1 1 1 h 1 v 1 l 1,1 v 1 l 1,1 1,1 v 1 h 1 v 1 h 1 v 1 h 1 v 1 h 1 1 v 1 h 1 1 1 1 1 v -1 h 1 v -1 -1 -1 -1 -1 h -1 v -1 -1 -1 l -1,-1 v -1 -1 h -1 v -1 h -1 v -1 -1 h -1 v -1 h -1 l -1,-1 -1,-1 h -1 l -1,-1 h -1 -1 v -1 h -1 -1 -1 -1 v -1 h -1"
         style="fill:none;stroke:#000000;stroke-width:1;stroke-linecap:round;stroke-linejoin:round;stroke-miterlimit:10;stroke-dasharray:none;stroke-opacity:1"
         id="path137" />
      <path
         d="m 2012,1593 h 1 1 v -1 h 1 v -1 h 1 v -1 l 1,-1 v -1 h 1 v -1 -1 -1 -1 -1 -1 -1 h -1 v -1 -1 h -1 v -1 h -1 v -1 h -1 l -1,-1 h -1 l -1,-1 h -1 -1 -1 -1 -1"
         style="fill:none;stroke:#000000;stroke-width:1;stroke-linecap:round;stroke-linejoin:round;stroke-miterlimit:10;stroke-dasharray:none;stroke-opacity:1"
         id="path139" />
      <path
         d="m 2004,1576 h -1 l -1,1 h -1 -1 v 1 h -1 v 1 h -1 v 1 h -1 v 1 h -1 v 1 h -1 v 1 1 l -1,1 v 1 1 1 1 1 1 1 1 1 1 h 1 v 1 1 h 1 v 1 1 h 1 v 1 h 1 v 1 h 1 l 1,1 h 1 v 1 h 1 1 l 1,1 h 1 1 l 1,1 h 1 1 1 1 1 1 2"
         style="fill:none;stroke:#000000;stroke-width:1;stroke-linecap:round;stroke-linejoin:round;stroke-miterlimit:10;stroke-dasharray:none;stroke-opacity:1"
         id="path141" />
      <path
         d="m 2017,1605 v 1 h 1 1 1 1 1 v 1 h 1 1 v 1 h 1 1 v 1 h 1 v 1 h 1 v 1 1 h 1 v 1 1 h -1 v 1 h -1 -1 -1 -1 -1 v -1 h -1 v -1 h -1 l -1,-1 v -1 h -1 v -1 h -1 v -1 -1 h -1 v -1 -1 -1"
         style="fill:none;stroke:#000000;stroke-width:1;stroke-linecap:round;stroke-linejoin:round;stroke-miterlimit:10;stroke-dasharray:none;stroke-opacity:1"
         id="path143" />
      <path
         d="m 2015,1606 -13,-37"
         style="fill:none;stroke:#000000;stroke-width:1;stroke-linecap:round;stroke-linejoin:round;stroke-miterlimit:10;stroke-dasharray:none;stroke-opacity:1"
         id="path145" />
      <path
         d="m 2017,1605 -13,-36"
         style="fill:none;stroke:#000000;stroke-width:1;stroke-linecap:round;stroke-linejoin:round;stroke-miterlimit:10;stroke-dasharray:none;stroke-opacity:1"
         id="path147" />
      <path
         d="m 2013,1599 h -2 -1 -1 -1 -1 l -1,-1 h -1 -1 -1 -1 v -1 h -1 l -1,-1 h -1 v -1 h -1 v -1 h -1 v -1 h -1 v -1 -1 -1 -1 -1 -1 -1 -1 l 1,-1 v -1 h 1 v -1 h 1 v -1 l 1,-1 h 1 v -1 h 1 l 1,-1 h 1 v -1 h 1"
         style="fill:none;stroke:#000000;stroke-width:1;stroke-linecap:round;stroke-linejoin:round;stroke-miterlimit:10;stroke-dasharray:none;stroke-opacity:1"
         id="path149" />
      <path
         d="m 2006,1577 h 1 1 1 1 1 v 1 h 1 1 v 1 l 1,1 v 1 1 h 1 v 1 1 h -1 v 1 1 h -1 v 1 1 h -1 v 1 h -1"
         style="fill:none;stroke:#000000;stroke-width:1;stroke-linecap:round;stroke-linejoin:round;stroke-miterlimit:10;stroke-dasharray:none;stroke-opacity:1"
         id="path151" />
      <path
         d="m 2009,1590 h -1 -1 -1 -1 -1 v -1 h -1 v -1 -1 h -1 v -1 -1 -1 h 1 v -1 l 1,-1 h -1 v -1 l -1,1 v 1 h -1 v 1 1 l -1,1 v 1 1 h 1 v 1 1 1 h 1 v 1 h 1 v 1 h 1 l 1,1 h 1 1 1 1 1 1"
         style="fill:none;stroke:#000000;stroke-width:1;stroke-linecap:round;stroke-linejoin:round;stroke-miterlimit:10;stroke-dasharray:none;stroke-opacity:1"
         id="path153" />
      <path
         d="m 2002,1569 v -1 h -1 v -1 h -1 v -1 h -1 v -1 h -1 -1 -1 -1 -1 v 1 h -1 l -1,1 h -1 v 1 1 h -1 v 1 h 1 v -1 h 1 1 1 1 l 1,1 v 1 h 1 v 1 1 1 h -1 v 1 l -1,1 h -1 v 1 h -1 -1 -1 -1 v -1 h -1 v -1 h -1 v -1 -1 h -1 v -1 -1 -1 h 1 v -1 -1 h 1 v -1 h 1 v -1 h 1 v -1 h 1 l 1,-1 h 1 1 1 v -1 h 1 l 1,1 h 1 1 v 1 h 1 v 1 h 1 v 1 h 1 v 1 l 1,1"
         style="fill:none;stroke:#000000;stroke-width:1;stroke-linecap:round;stroke-linejoin:round;stroke-miterlimit:10;stroke-dasharray:none;stroke-opacity:1"
         id="path155" />
      <path
         d="m 2004,1570 v 0"
         style="fill:none;stroke:#000000;stroke-width:1;stroke-linecap:round;stroke-linejoin:round;stroke-miterlimit:10;stroke-dasharray:none;stroke-opacity:1"
         id="path157" />
      <path
         d="m 3367,1582 -1,1 v 1 h -1 v 1 l -1,1 v 1 h -1 v 1 1 h -1 v 1 1 1 h -1 v 1 1 1 1 1 1 1 l 1,1 v 1 h 1 v 1 h 1 1 1 v -1 h 1 l 1,-1 v -1 h 1 l 1,-1 1,-1 v -1 h 1 v -1 -1 h 1 v -1 -1 h 1 v -1 -1 -1 -1 -1 -1 -1 -1 -1 -1 l -1,-1 v -1 -1 h -1 v -1"
         style="fill:none;stroke:#000000;stroke-width:1;stroke-linecap:round;stroke-linejoin:round;stroke-miterlimit:10;stroke-dasharray:none;stroke-opacity:1"
         id="path159" />
      <path
         d="m 3376,1573 h 1 v 1 h 1 1 1 1 1 1 1 1 v -1 h 1 1 v -1 h 1 v -1 h 1 v -1 h 1 v -1 -1 l 1,-1 v -1 -1 -1 -1 l -1,-1 v -1 -1 l -1,-1 v -1 h -1 v -1"
         style="fill:none;stroke:#000000;stroke-width:1;stroke-linecap:round;stroke-linejoin:round;stroke-miterlimit:10;stroke-dasharray:none;stroke-opacity:1"
         id="path161" />
      <path
         d="m 3386,1556 -1,-1 h -1 v -1 h -1 -1 l -1,-1 h -1 -1 -1 -1 -1 -1 -1 -1 -1 l -1,1 h -1 l -1,1 h -1 v 1 h -1 v 1 h -1 v 1 h -1 v 1 h -1 v 1 1 h -1 v 1 1 1 h -1 v 1 1 1 1 1 1 h 1 v 1 1 1 l 1,1 v 1 1 l 1,1 v 1 l 1,1 1,1 v 1"
         style="fill:none;stroke:#000000;stroke-width:1;stroke-linecap:round;stroke-linejoin:round;stroke-miterlimit:10;stroke-dasharray:none;stroke-opacity:1"
         id="path163" />
      <path
         d="m 3368,1583 h 1 v 1 1 l 1,1 v 1 1 h 1 v 1 1 1 1 1 1 h -1 v 1 1 h -1 v 1 h -1 -1 -1 v -1 h -1 v -1 -1 h -1 v -1 -1 -1 l 1,-1 v -1 -1 -1 h 1 v -1 -1 h 1 v -1 h 1 v -1"
         style="fill:none;stroke:#000000;stroke-width:1;stroke-linecap:round;stroke-linejoin:round;stroke-miterlimit:10;stroke-dasharray:none;stroke-opacity:1"
         id="path165" />
      <path
         d="m 3367,1582 24,-32"
         style="fill:none;stroke:#000000;stroke-width:1;stroke-linecap:round;stroke-linejoin:round;stroke-miterlimit:10;stroke-dasharray:none;stroke-opacity:1"
         id="path167" />
      <path
         d="m 3368,1583 24,-31"
         style="fill:none;stroke:#000000;stroke-width:1;stroke-linecap:round;stroke-linejoin:round;stroke-miterlimit:10;stroke-dasharray:none;stroke-opacity:1"
         id="path169" />
      <path
         d="m 3371,1576 v -1 l -1,-1 v -1 l -1,-1 v -1 l -1,-1 v -1 -1 h -1 v -1 -1 -1 -1 -1 -1 -1 -1 h 1 v -1 -1 h 1 v -1 h 1 v -1 h 1 1 v -1 h 1 1 1 1 1 1 1 1 1 l 1,1 h 1 1 v 1 h 1 v 1"
         style="fill:none;stroke:#000000;stroke-width:1;stroke-linecap:round;stroke-linejoin:round;stroke-miterlimit:10;stroke-dasharray:none;stroke-opacity:1"
         id="path171" />
      <path
         d="m 3387,1559 v 1 h 1 v 1 1 h 1 v 1 1 1 h -1 v 1 1 l -1,1 -1,1 h -1 l -1,1 h -1 -1 -1 -1 -1 v -1"
         style="fill:none;stroke:#000000;stroke-width:1;stroke-linecap:round;stroke-linejoin:round;stroke-miterlimit:10;stroke-dasharray:none;stroke-opacity:1"
         id="path173" />
      <path
         d="m 3377,1568 -1,-1 v -1 h -1 v -1 -1 -1 -1 h 1 v -1 l 1,-1 h 1 v -1 h 1 1 1 v 1 -1 -1 h -1 -1 -1 -1 -1 v 1 h -1 l -1,1 h -1 v 1 l -1,1 v 1 1 1 1 1 1 l 1,1 v 1 h 1 v 1 h 1 v 1"
         style="fill:none;stroke:#000000;stroke-width:1;stroke-linecap:round;stroke-linejoin:round;stroke-miterlimit:10;stroke-dasharray:none;stroke-opacity:1"
         id="path175" />
      <path
         d="m 3391,1550 v -1 h 1 v -1 -1 -1 -1 h -1 v -1 -1 h -1 v -1 h -1 -1 v -1 h -1 -1 -1 -1 -1 1 v 1 h 1 1 v 1 l 1,1 v 1 1 h -1 v 1 1 h -1 v 1 h -1 -1 -1 -1 v -1 h -1 -1 v -1 l -1,-1 v -1 -1 -1 -1 h 1 v -1 h 1 v -1 h 1 v -1 h 1 1 1 1 1 1 l 1,1 h 1 1 v 1 h 1 v 1 h 1 v 1 h 1 v 1 1 1 h 1 v 1 h -1 v 1 1 1 h -1 v 1 1"
         style="fill:none;stroke:#000000;stroke-width:1;stroke-linecap:round;stroke-linejoin:round;stroke-miterlimit:10;stroke-dasharray:none;stroke-opacity:1"
         id="path177" />
      <path
         d="m 3391,1553 v 0"
         style="fill:none;stroke:#000000;stroke-width:1;stroke-linecap:round;stroke-linejoin:round;stroke-miterlimit:10;stroke-dasharray:none;stroke-opacity:1"
         id="path179" />
    </g>
  </g>
</svg>
