<?xml version="1.0" encoding="utf-8"?>
<!-- Generator: Adobe Illustrator 23.1.0, SVG Export Plug-In . SVG Version: 6.00 Build 0)  -->
<svg version="1.1" xmlns="http://www.w3.org/2000/svg" xmlns:xlink="http://www.w3.org/1999/xlink" x="0px" y="0px"
	 viewBox="0 0 1350 1080" style="enable-background:new 0 0 1350 1080;" xml:space="preserve">
<style type="text/css">
	.st0{display:none;}
	.st1{display:inline;}
	.st2{display:inline;fill:#010202;}
	.st3{fill:none;stroke:#FFFFFF;stroke-miterlimit:10;}
	.st4{fill:#2B4C9A;}
	.st5{fill:#F49B5E;}
	.st6{fill:#F3E600;}
	.st7{fill:#E52421;}
	.st8{fill:#BE7CB3;}
	.st9{fill:#66B32E;}
	.st10{fill:none;}
	.st11{fill:#FFFFFF;}
	.st12{font-family:'News706BT-BoldC';}
	.st13{font-size:75px;}
	.st14{font-size:114px;}
</style>
<g id="Layer_3" class="st0">
	<g id="Layer_4" class="st1">
	</g>
	<polygon class="st2" points="1356.56,1124.98 3.81,1122.33 -1.7,-3.9 1356.56,-3.9 	"/>
</g>
<g id="Layer_1">
	<line class="st3" x1="0" y1="393.98" x2="1350" y2="393.98"/>
	<line class="st3" x1="0" y1="492.76" x2="1350" y2="484.04"/>
	<line class="st3" x1="2.43" y1="576.63" x2="1352.43" y2="576.63"/>
	<line class="st3" x1="0" y1="660.49" x2="1350" y2="660.49"/>
	<line class="st3" x1="-3.97" y1="733.05" x2="1346.03" y2="733.05"/>
	<g>
		<path class="st4" d="M1150.42,638.99c-0.29,0.53-0.59,1.04-0.9,1.55c-7.95,12.95-24.58,17.37-38.96,15.06
			c-6.84-1.1-14.11-4.44-17.67-10.65c-6.83-11.91,2.03-23.94,12.81-29.26c12.39-6.12,27.65-6.06,40,0.14
			c-1.74-0.87,10.31-46.78,11.33-51.41c3.6-16.34,7.99-32.72,10.96-49.16c2.96-16.35-25.28-26.07-37.46-28.21
			c-19.93-3.51-48.32,1.43-59.13,20.62c-3.82,6.79-4.75,15.19-5.91,22.77c-1.36,8.89-3.45,17.75-5.45,26.59
			c-10.08,44.57-19.06,89.58-30.14,133.9c-0.93,4.19-1.89,8.47-4.2,12.09c-4.52,7.09-13.24,10.23-21.51,11.75
			c-7.75,1.43-15.97,1.82-23.3-1.06c-7.33-2.89-13.53-9.68-13.78-17.55c-0.29-9.26,7.41-17.01,15.8-20.94
			c12.28-5.74,27.13-5.67,39.35,0.18c12.55-56.76,25.09-113.51,37.64-170.26c0.09-0.42-9.99,3.08-10.96,3.72
			c-3.42,2.26-6.16,5.42-8.28,8.9c-3.54,5.79-5.47,12.47-5.97,19.22c-0.48,6.53,4.78,16.22,1.8,22.3c-2.72,5.54-8.17-2.18-8.84-5
			c-8.13-34.2,11.5-60.04,36.18-81.15c4.18-3.58,10.5-7.21,14.63-3.58c-0.32,3.27-0.64,6.53-0.96,9.8
			c0.36-3.63,19.51-7.78,22.78-8.37c8.91-1.63,18.12-1.56,27.01,0.2c17.46,3.47,33.36,13.76,43.72,28.25
			c-1.61-4.38,3.18-9.5,7.73-8.44s6.71,7.36,4.01,11.17c15.16-8.76,33.63-11.61,50.72-7.83c16.54,3.66,32.97,14.64,42.68,28.5
			c0.78-2.46,1.44-8.22,3.73-9.52c2.56-1.46,6.27,0.78,7.26,3.14c1.15,2.74,0.53,5.87-0.1,8.77
			c-9.34,42.64-18.68,85.29-28.03,127.93c-1.16,5.29-2.41,10.79-5.81,15c-4.06,5.04-10.53,7.43-16.79,9.05
			c-8.29,2.15-17.19,3.33-25.33,0.66c-8.14-2.66-15.22-10.05-15.2-18.61c0.02-8.39,6.59-15.46,13.94-19.51
			c12.44-6.85,28.2-7.28,40.99-1.13c7.3-33.04,14.6-66.09,21.91-99.13c0.52-2.34,1.03-4.79,0.39-7.09c-0.61-2.19-2.2-3.97-3.83-5.57
			c-23-22.67-74.34-27.7-92,4.63c-5.01,9.17-7.14,19.58-9.21,29.82c-2.81,13.88-5.61,27.76-8.42,41.64
			C1157.3,614.59,1156.26,628.36,1150.42,638.99z"/>
	</g>
	<path class="st5" d="M218.2,569c-5.04-11.18-7.86-23.53-7.55-35.82c0.33-12.87,5.53-24.65,8.22-37.1c0.04-0.54,0.07-1.09,0.11-1.63
		c0.2-2.2,0.37-4.41,0.62-6.61c0.91-8.2,1.31-8.46,9.35-11c2.33-0.74,3.07-0.06,4,1.82c1.34,2.73,1.58,6,4.2,8.63
		c10.05-19.95,24.91-34.44,45.7-42.43c20.45-7.86,40.93-7.43,62.17,0.64c-0.96-2.69-4.79-9.33-3.16-12.08
		c2.31-3.85,10.47-5.26,12.23-0.64c13.87,36.42,30.32,72.42,42.63,109.37c3.87,9.57,6.89,19.48,11.68,28.67
		c-0.18,0.48-0.07,0.87,0.34,1.18c3.17,11.23,12.36,23.63,9.37,35.6c-4.64,18.59-22.08,33.88-40.86,36.73
		c-16.76,2.54-29.28-10.75-25.37-27.22c2.3-9.68,7.08-18.01,14.62-24.79c8.6-7.74,18.44-12.62,30.12-14.01
		c-5.89-19.94-15.1-39.23-22.69-58.58c-7.93-20.18-15.8-40.38-23.39-60.7c-0.96-2.56-2.44-3.88-5.09-4.5
		c-10.65-2.47-21.28-3.51-32.19-1.49c-25.56,4.72-44.61,18.13-56.52,41.37c-0.15,0.43-0.3,0.87-0.45,1.3
		c-3.68,5.4-4.89,11.7-6.53,17.85c-1.01,3.79-0.48,7.21,1,10.87c9.76,24.13,19.08,48.43,28.4,72.73
		c4.66,12.15,9.33,24.3,14.06,36.42c5.78,14.81,5.46,26.34-4.91,38.87c-8.32,10.07-21.05,18.69-34.51,18.88
		c-15.7,0.22-24.2-9.92-22.92-23.64c1.76-18.93,16.97-34.06,34.26-40.26c3.5-1.26,7.39-0.78,11.15-2.76
		c1.4-0.74-35.62-90.8-39.18-99.97c0.24,0.61-6.1,6.62-6.87,7.64c-2.52,3.34-3.95,6.48-4.36,10.64c-0.97,9.64,1.95,19.67,6.19,28.21
		l0.07,0.37c2.2,6.34,6.34,11.4,10.76,16.29c2.59,2.87,6.03,5.03,7.78,8.66c-5.89,3.88-5.79,3.75-10.91-0.03
		C230.31,589.46,223.07,579.8,218.2,569z"/>
	<g>
		<path class="st6" d="M466.16,501.74c16.42-9.65,35.42-10.85,53.97-8.93c9.33,0.97,18.57,2.61,27.82,4.12
			c8.98,1.46,18.29-0.01,27.14,2.03c11.17,2.58,20.3,12.41,22.05,23.74c0.62,4.03,0.32,8.39-1.9,11.81
			c-4.09,6.31-13.23,7.28-20.35,4.89c-9.3-3.12-16.88-10.98-19.65-20.39c-0.7-2.36-1.16-4.89-2.73-6.78
			c-3.37-4.04-9.8-3.07-14.66-1.07c-18.67,7.68-32.13,24.61-40.94,42.78c-13.48,27.82-17.76,60-12.02,90.37
			c3.48,18.4,12.2,37.87,29.49,45.05c0.93,0.39,1.97,0.74,2.93,0.42c1.08-0.36,1.72-1.45,2.31-2.43c5.86-9.71,17-16,28.34-16
			c6.08,0,12.61,2.05,16.03,7.08c3.48,5.13,2.81,12.31-0.5,17.55c-4.89,7.74-13.78,12.36-22.78,13.09
			c-10.6,0.86-18.98-5.1-28.66-8.27c-10.82-3.54-19.9-11.4-26.28-20.83c-6.38-9.43-10.22-20.37-12.71-31.48
			c-10.65-47.58,4.28-100.12,38.37-134.99c-4.72-8.5-16.59-9.72-26.07-7.56c-12.48,2.84-23.99,9.76-32.35,19.45
			c-1.83,2.12-4.73,4.59-7.01,2.97c-2.01-1.43-1.22-4.58-0.03-6.75C450.48,513.38,457.7,506.71,466.16,501.74z"/>
	</g>
	<g>
		<path class="st7" d="M94.18,696.99c-3.58-2.01-6.63-4.9-8.72-8.81c-9.97-18.69,8.16-36.17,24.03-43.14
			c6.02-2.65,12.51-4.04,19.08-4.27c3.25-0.11,6.51,0.06,9.74,0.43c2.75,0.31,6.95,2.44,6.9-1.57c0-10.91,0.14-21.78,0.15-32.68
			c0.01-13.54,0-27.08-0.01-40.61c-0.01-26.68-0.01-53.36,0.07-80.03c0.01-4.9,0.11-5.01,4.87-5.01c9.75,0,8.19-0.72,8.26,7.87
			c0.32,39.34,0.34,78.67,0.08,118.01c-0.13,19.91-0.22,39.82,0,59.73c0.12,10.2-7.53,17.32-15.3,22.81
			C129.89,699.22,109.57,705.63,94.18,696.99z"/>
		<path class="st7" d="M152.37,412.29c15.92-0.45,22.79,13.58,15.81,26.45c-6.44,11.89-24.47,20.49-35.25,18.29
			c-11.32-2.31-16.62-11.44-12.73-22.77C124.49,421.76,138.44,412.4,152.37,412.29z"/>
	</g>
	<path class="st8" d="M841.99,540.19c-2.56-10.73-4.55-21.6-9.15-31.67c-9.75-21.32-33.57-37.36-61.48-32
		c-12.23,2.35-23.25,8.87-31.32,18.34c-7.01,8.23-11.87,18.31-13.66,28.99c-0.72,4.32-4.31,7.29-8.11,3.26
		c-1.68-1.77-2.23-4.38-2.01-6.81c1.22-13.91,9.7-29.62,19.11-39.65c21.73-23.17,55.72-29.04,83.76-14.69
		c8.39,4.3,15.69,10.61,21.64,17.9c9.92,12.17,23.36,20.67,33.7,32.38c10.73,12.14,20.08,27.74,23.57,43.71
		c1.81,8.28,1.08,17,1.44,25.41c0.19,4.47-0.29,9.4-2.22,13.49c-1.21,2.57-8.29,10.53-9.98,4.04c-0.9-3.45,1.41-8.86,1.71-12.42
		c0.43-5.1,0.24-10.24-0.5-15.31c-1.47-10.18-5.14-20.02-10.49-28.79c-2.18-3.57-4.68-7.03-8.01-9.56
		c-3.33-2.54-7.59-4.07-11.72-3.41c-0.8,0.13-1.63,0.36-2.23,0.92c-1.3,1.22-0.93,3.33-0.46,5.05
		c6.86,25.26,13.72,50.52,20.59,75.77c9.93-6.09,21.87-9.15,33.47-7.41c18.95,2.85,45.57,17.37,34.83,40.75
		c-3.55,7.73-11.09,13.13-19.23,15.6c-9.96,3.02-21.5,2.62-31.46-0.25c-4.54-1.31-8.9-3.25-12.85-5.85
		c-1.32-0.87-10.24-9.66-10.59-9.57c-1.78,0.47-2.08,2.07-2.83,3.23c-9.42,14.45-21.31,26.25-36.03,34.67
		c-16.81,9.61-34.56,15.4-54.14,12.05c-26.65-4.55-37.66-27.73-33.99-48.47c1.61-9.1,4.79-17.53,8.67-25.81
		c7.37-15.71,23.1-29.85,37.44-38.46c16.21-9.72,33.41-15.68,52.52-13.38c2.7,0.33,5.37,0.86,8.82,1.42
		c-1.92-7.11-3.16-14.48-5.46-21.45C844.01,548.27,842.96,544.24,841.99,540.19z M769.9,621.27c-5.45,7.31-9.69,15.52-12.21,24.48
		c-2.69,9.57-2.19,20.65,3.64,28.58c4.19,5.69,10.73,9.21,17.51,10.56s13.81,0.7,20.56-0.78c24.27-5.32,45.98-21.64,58.96-43.54
		c2.56-4.31,4.84-8.99,5.23-14.03c0.36-4.59-0.87-9.14-2.09-13.57c-1.43-5.19-2.85-10.37-4.28-15.56c-0.62-2.24-1.27-4.56-2.75-6.32
		c-1.55-1.84-3.82-2.84-6.06-3.58c-12.85-4.23-27-1.66-39.48,3.63C793.98,597.49,779.91,607.86,769.9,621.27z"/>
	<g>
		<g>
			<path class="st9" d="M658.66,502.28c0.2,23.99,0.95,47.97,0.84,71.97c-0.01,3.29-0.05,6.58-0.1,9.86
				c-0.48,0.57-0.35,1.19,0.05,1.68c0.35,0.43,0.75,0.28,0.95-0.25c8.18-1.88,16.35-2.18,24.52,0.09
				c10.68,2.97,19.88,8.28,26.08,17.68c4.75,7.22,7.14,14.97,2.09,23.2c-3.19,5.21-8.03,8.26-13.81,9.75
				c-13.66,3.52-30.65-1.23-41.5-10.1c-5.63-4.6-9.96-10.9-10.55-18.31c-0.92-11.52-0.15-23.72,0.04-35.29
				c0.73-44.44,0.27-88.89,0.21-133.34c-0.27-2.49-1.23-1.01-2.04-0.35c-3.78,1.98-8.55,3.14-11.24,6.7
				c-2.71,3.59-5.17,9.49-5.93,13.91c-2.31,13.48-1.36,26.69,4.77,39.22c0.55,1.13,1.01,2.25,2.13,2.94c0,0,0,0.06,0,0.06
				c-0.02,3.04-3.02,5.31-6.07,3.95c-6.85-3.05-10.43-19.79-11.66-26.07c-2.24-11.54-1.39-23.43,1.47-34.77
				c1.25-4.94,3.8-9.5,4.34-14.66c0,0,0.34-0.23,0.34-0.23l-0.07-0.4c8.15-9.53,16.84-18.67,21.92-30.43c0.77-1.79,1-4.52,3.31-4.85
				c3.03-0.43,6.2-0.31,9.25,0.07c1.88,0.23,1.31,2.26,1.32,3.59c0.14,29.51-0.56,59.01-0.69,88.52
				C658.59,491.71,658.61,497,658.66,502.28z"/>
		</g>
		<path class="st9" d="M647.47,439.23c-0.68-0.12-1.36-0.23-2.04-0.35C646.24,438.21,647.2,436.73,647.47,439.23z"/>
		<path class="st9" d="M659.4,584.12c0.33,0.47,0.67,0.95,1,1.42c-0.2,0.53-0.6,0.68-0.95,0.25
			C659.06,585.31,658.93,584.69,659.4,584.12z"/>
	</g>
</g>
<g id="Layer_2">
	<rect y="263.63" class="st10" width="1350" height="229.14"/>
	<text transform="matrix(1 0 0 1 114.2213 321.4522)" class="st11 st12 st13">Dr. R P Karambelkar Presents</text>
	<rect x="47.79" y="792.22" class="st10" width="1259.28" height="144.72"/>
	<text transform="matrix(1 0 0 1 49.8198 880.1173)" class="st11 st12 st14">Indian Classical Music</text>
</g>
</svg>
